<?xml version="1.0" encoding="utf-8"?>
<svg xmlns="http://www.w3.org/2000/svg" style="margin: auto; background: none; display: block; shape-rendering: auto;" width="280" height="139" preserveAspectRatio="xMidYMid">
<style type="text/css">
  text {
    text-anchor: middle; font-size: 176px; opacity: 0;
  }
</style>
<g style="transform-origin: 140px 69.5px; transform: scale(2.2);">
<g transform="translate(140,69.5)">
  <g transform="translate(0,0)"><g class="path" style="transform: scale(0.91); transform-origin: -39.04px -4.9056px; animation: 0.775194s linear -0.341085s infinite normal forwards running breath-f45e1924-e0ab-40d2-a65c-362d40195d4a;"><path d="M17.52 0L0.80-39.68L7.36-42.40L21.52-8.16L35.68-42.40L41.84-39.68L25.04 0L17.52 0" fill="#774023" stroke="none" stroke-width="none" transform="translate(-60.360015869140625,16.29440040588379)" style="fill: rgb(119, 64, 35);"></path></g><g class="path" style="transform: scale(0.91); transform-origin: 5.55998px -4.5056px; animation: 0.775194s linear -0.170543s infinite normal forwards running breath-f45e1924-e0ab-40d2-a65c-362d40195d4a;"><path d="M44.64-20.56L44.64-20.56L44.64-20.56Q44.64-25.20 46.08-29.24L46.08-29.24L46.08-29.24Q47.52-33.28 50.12-36.24L50.12-36.24L50.12-36.24Q52.72-39.20 56.36-40.88L56.36-40.88L56.36-40.88Q60-42.56 64.32-42.56L64.32-42.56L64.32-42.56Q67.92-42.56 70.84-41.32L70.84-41.32L70.84-41.32Q73.76-40.08 75.92-38.24L75.92-38.24L75.92-41.60L82.48-41.60L82.48-10.08L82.48-10.08Q82.48-7.04 83.96-6.12L83.96-6.12L83.96-6.12Q85.44-5.20 87.20-5.20L87.20-5.20L85.68 0.40L85.68 0.40Q78 0.40 76.40-5.84L76.40-5.84L76.40-5.84Q75.44-4.56 74.20-3.32L74.20-3.32L74.20-3.32Q72.96-2.08 71.36-1.12L71.36-1.12L71.36-1.12Q69.76-0.16 67.76 0.40L67.76 0.40L67.76 0.40Q65.76 0.96 63.36 0.96L63.36 0.96L63.36 0.96Q59.44 0.96 56.04-0.56L56.04-0.56L56.04-0.56Q52.64-2.08 50.12-4.88L50.12-4.88L50.12-4.88Q47.60-7.68 46.12-11.64L46.12-11.64L46.12-11.64Q44.64-15.60 44.64-20.56zM64.96-5.44L64.96-5.44L64.96-5.44Q68-5.44 70.72-6.88L70.72-6.88L70.72-6.88Q73.44-8.32 75.28-10.64L75.28-10.64L75.28-32.96L75.28-32.96Q73.12-34.48 70.52-35.40L70.52-35.40L70.52-35.40Q67.92-36.32 65.04-36.32L65.04-36.32L65.04-36.32Q62.16-36.32 59.76-35.20L59.76-35.20L59.76-35.20Q57.36-34.08 55.64-32.04L55.64-32.04L55.64-32.04Q53.92-30 52.96-27.12L52.96-27.12L52.96-27.12Q52-24.24 52-20.80L52-20.80L52-20.80Q52-17.44 52.96-14.60L52.96-14.60L52.96-14.60Q53.92-11.76 55.68-9.72L55.68-9.72L55.68-9.72Q57.44-7.68 59.80-6.56L59.80-6.56L59.80-6.56Q62.16-5.44 64.96-5.44" fill="#774023" stroke="none" stroke-width="none" transform="translate(-60.360015869140625,16.29440040588379)" style="fill: rgb(119, 64, 35);"></path></g><g class="path" style="transform: scale(0.91); transform-origin: 48.8px -4.9856px; animation: 0.775194s linear 0s infinite normal forwards running breath-f45e1924-e0ab-40d2-a65c-362d40195d4a;"><path d="M121.52-42.08L119.36-34.64L119.36-34.64Q117.84-35.28 115.76-35.28L115.76-35.28L115.76-35.28Q113.52-35.28 111.40-34.32L111.40-34.32L111.40-34.32Q109.28-33.36 107.64-31.44L107.64-31.44L107.64-31.44Q106-29.52 105-26.52L105-26.52L105-26.52Q104-23.52 104-19.44L104-19.44L104 0L96.80 0L96.80-41.60L103.76-41.60L103.76-32.56L103.76-32.56Q104.48-34.48 105.68-36.32L105.68-36.32L105.68-36.32Q106.88-38.16 108.52-39.52L108.52-39.52L108.52-39.52Q110.16-40.88 112.32-41.72L112.32-41.72L112.32-41.72Q114.48-42.56 117.12-42.56L117.12-42.56L117.12-42.56Q118.32-42.56 119.48-42.44L119.48-42.44L119.48-42.44Q120.64-42.32 121.52-42.08L121.52-42.08" fill="#774023" stroke="none" stroke-width="none" transform="translate(-60.360015869140625,16.29440040588379)" style="fill: rgb(119, 64, 35);"></path></g></g>
</g>
</g>
<style id="breath-f45e1924-e0ab-40d2-a65c-362d40195d4a" data-anikit="">@keyframes breath-f45e1924-e0ab-40d2-a65c-362d40195d4a
{
  0% {
    animation-timing-function: cubic-bezier(0.9647,0.2413,-0.0705,0.7911);
    transform: scale(0.9099999999999999);
  }
  51% {
    animation-timing-function: cubic-bezier(0.9226,0.2631,-0.0308,0.7628);
    transform: scale(1.02994);
  }
  100% {
    transform: scale(0.9099999999999999);
  }
}</style></svg>